<?xml version="1.0" encoding="utf-8"?>
<!-- Generator: Adobe Illustrator 18.0.0, SVG Export Plug-In . SVG Version: 6.00 Build 0)  -->
<!DOCTYPE svg PUBLIC "-//W3C//DTD SVG 1.1//EN" "http://www.w3.org/Graphics/SVG/1.1/DTD/svg11.dtd">
<svg version="1.1" id="Layer_1" xmlns="http://www.w3.org/2000/svg" xmlns:xlink="http://www.w3.org/1999/xlink" x="0px" y="0px"
	 width="611.9px" height="56.7px" viewBox="8.3 1114.8 611.9 56.7" enable-background="new 8.3 1114.8 611.9 56.7"
	 xml:space="preserve">
<path fill="#8C8C8C" d="M573.4,1157.1v3.1h0.2c0.6,0.2,1.4,0.2,2.1,0.2s1.2,0,1.8,0s1.2-0.2,1.6-0.4c0.6-0.2,1.2-0.6,1.8-1
	c0.4-0.4,0.8-0.8,1-1.4c0.4-1,0.4-2.1,0-3.1c-0.2-0.4-0.6-1-1-1.2c-0.4-0.4-0.8-0.6-1.4-0.8l-2.3-0.8c-0.2-0.2-0.4-0.4-0.6-0.6
	c0-0.2,0-0.4,0-0.6c0,0,0-0.2,0.2-0.2l0.2-0.2c0,0,0,0,0.2,0c0.2-0.2,0.6-0.2,0.8-0.2c0.4,0,1,0,1.4,0c0.6,0,1,0.2,1.6,0.2h0.2v-2.9
	h-0.2c-0.6-0.2-1.2-0.2-1.6-0.2c-0.8,0-1.4,0-2.3,0c-1,0-1.8,0.4-2.7,1c-0.4,0.4-0.8,0.8-1,1.4c-0.4,0.8-0.4,1.8,0,2.9
	c0.2,0.4,0.4,0.8,0.8,1.2c0.2,0.2,0.6,0.6,1,0.8c0.4,0.2,1,0.4,1.6,0.6c0.2,0,0.4,0.2,0.6,0.2h0.2c0.2,0,0.4,0.2,0.6,0.4
	c0.2,0.2,0.2,0.2,0.4,0.4c0,0.2,0,0.4,0,0.4c0,0.2-0.2,0.4-0.6,0.6c-0.2,0.2-0.6,0.2-0.8,0.2c-0.4,0-0.8,0-1.4,0
	c-0.6,0-1.2-0.2-1.8-0.2C574,1157.3,573.8,1157.1,573.4,1157.1"/>
<path fill="#8C8C8C" d="M560.8,1159.9v-3.6c-0.8,0.4-1.6,0.6-2.5,0.6c-0.8,0-1.8-0.2-2.5-0.8c-0.6-0.4-0.8-1-1-1.6s-0.2-1.4,0-2.1
	c0.2-0.7,0.6-1.4,1-1.8c0.4-0.4,1-0.6,1.8-0.8c1.2-0.2,2.3,0,3.4,0.6v-3.1h-0.2c-1-0.4-2.1-0.4-3.1-0.4s-1.8,0.2-2.9,0.6
	c-0.8,0.4-1.6,1-2.3,1.8c-2.1,2.5-2.1,6.1-0.2,8.5c1,1.2,2.3,2.1,3.8,2.5c1.6,0.4,3.1,0.4,4.8-0.2L560.8,1159.9"/>
<path fill="#8C8C8C" d="M568.7,1160.2v-13.4h-3.2v13.4H568.7"/>
<path fill="#8C8C8C" d="M543.7,1136.1c0,0.4,0.2,0.8,0.6,1c0.4,0.2,0.6,0.4,1,0.4s0.8-0.2,1-0.4c0.2-0.2,0.4-0.6,0.6-1v-3.8
	c0-0.4-0.2-0.8-0.4-1c-0.2-0.2-0.6-0.4-1.2-0.4c-0.4,0-0.8,0.2-1.2,0.4c-0.2,0.2-0.4,0.6-0.4,1L543.7,1136.1"/>
<path fill="#8C8C8C" d="M552.9,1136.1c0,0.4,0.2,0.8,0.6,1c0.2,0.2,0.6,0.4,1,0.4s0.8-0.2,1-0.4c0.2-0.2,0.4-0.6,0.6-1v-8.3
	c0-0.4-0.2-0.8-0.4-1c-0.2-0.2-0.6-0.4-1.2-0.4c-0.4,0-0.8,0.2-1.2,0.4c-0.2,0.2-0.4,0.6-0.4,1L552.9,1136.1"/>
<path fill="#8C8C8C" d="M562.1,1139.5c0,0.4,0.2,0.8,0.6,1c0.2,0.2,0.6,0.4,1,0.4s0.8-0.2,1-0.4c0.2-0.2,0.4-0.6,0.6-1v-18
	c0-0.4-0.2-0.8-0.4-1c-0.2-0.2-0.6-0.4-1.2-0.4c-0.4,0-0.8,0.2-1.2,0.4c-0.2,0.2-0.4,0.6-0.4,1L562.1,1139.5"/>
<path fill="#8C8C8C" d="M571.3,1136.1c0,0.4,0.2,0.8,0.6,1c0.2,0.2,0.6,0.4,1,0.4s0.8-0.2,1-0.4c0.2-0.2,0.4-0.6,0.6-1v-8.3
	c0-0.4-0.2-0.8-0.4-1c-0.2-0.2-0.6-0.4-1.2-0.4c-0.4,0-0.8,0.2-1.2,0.4c-0.2,0.2-0.4,0.6-0.4,1L571.3,1136.1"/>
<path fill="#8C8C8C" d="M580.4,1136.1c0,0.4,0.2,0.8,0.6,1c0.4,0.2,0.6,0.4,1,0.4s0.8-0.2,1-0.4c0.2-0.2,0.4-0.6,0.6-1v-3.8
	c0-0.4-0.2-0.8-0.4-1c-0.2-0.2-0.6-0.4-1.2-0.4c-0.4,0-0.8,0.2-1.2,0.4c-0.2,0.2-0.4,0.6-0.4,1L580.4,1136.1"/>
<path fill="#8C8C8C" d="M589.6,1136.1c0,0.4,0.2,0.8,0.6,1c0.2,0.2,0.6,0.4,1,0.4s0.8-0.2,1-0.4c0.2-0.2,0.4-0.6,0.6-1v-8.3
	c0-0.4-0.2-0.8-0.4-1c-0.2-0.2-0.6-0.4-1.2-0.4c-0.4,0-0.8,0.2-1.2,0.4c-0.2,0.2-0.4,0.6-0.4,1L589.6,1136.1"/>
<path fill="#8C8C8C" d="M598.6,1139.5c0,0.4,0.2,0.8,0.6,1c0.2,0.2,0.6,0.4,1,0.4s0.8-0.2,1-0.4c0.2-0.2,0.4-0.6,0.6-1v-18
	c0-0.4-0.2-0.8-0.4-1c-0.2-0.2-0.6-0.4-1.2-0.4c-0.4,0-0.8,0.2-1.2,0.4c-0.2,0.2-0.4,0.6-0.4,1L598.6,1139.5"/>
<path fill="#8C8C8C" d="M607.7,1136.1c0,0.4,0.2,0.8,0.6,1c0.2,0.2,0.6,0.4,1,0.4s0.8-0.2,1-0.4c0.2-0.2,0.4-0.6,0.6-1v-8.3
	c0-0.4-0.2-0.8-0.4-1c-0.2-0.2-0.6-0.4-1.2-0.4c-0.4,0-0.8,0.2-1.2,0.4c-0.2,0.2-0.4,0.6-0.4,1L607.7,1136.1"/>
<path fill="#8C8C8C" d="M616.9,1136.1c0,0.4,0.2,0.8,0.6,1c0.2,0.2,0.6,0.4,1,0.4s0.8-0.2,1-0.4c0.2-0.2,0.4-0.6,0.6-1v-3.8
	c0-0.4-0.2-0.8-0.4-1c-0.2-0.2-0.6-0.4-1.2-0.4c-0.4,0-0.8,0.2-1.2,0.4c-0.2,0.2-0.4,0.6-0.4,1L616.9,1136.1"/>
<path fill="#8C8C8C" d="M595.8,1159.9v-3.6c-0.8,0.4-1.6,0.6-2.5,0.6c-0.8,0-1.8-0.2-2.5-0.8c-0.6-0.4-0.8-1-1-1.6s-0.2-1.4,0-2.1
	c0.2-0.7,0.6-1.4,1-1.8s1-0.6,1.8-0.8c1.2-0.2,2.3,0,3.4,0.6v-3.1h-0.1c-1-0.4-2.1-0.4-3.1-0.4c-1,0-1.8,0.2-2.9,0.6
	c-0.8,0.4-1.6,1-2.3,1.8c-2.1,2.5-2.1,6.1-0.2,8.5c1,1.2,2.3,2.1,3.8,2.5c1.6,0.4,3.1,0.4,4.8-0.2L595.8,1159.9"/>
<path fill="#8C8C8C" d="M599.4,1153.5c0,2.1,1,4.2,2.7,5.4c1.6,1.2,3.8,1.8,5.9,1.2c2.7-0.6,5-2.7,5.4-5.4s-0.8-5.6-3.1-7.1
	c-2.1-1.2-4.8-1.4-7.1-0.2C600.9,1148.7,599.4,1151,599.4,1153.5 M604.3,1150.8c0.6-0.6,1.6-0.8,2.5-0.8c0.8,0,1.6,0.6,2.3,1.2
	c0.6,0.6,0.8,1.6,0.8,2.5c0,0.8-0.6,1.6-1.2,2.3c-0.6,0.6-1.6,0.8-2.5,0.8c-0.8,0-1.6-0.6-2.3-1.2c-0.6-0.6-0.8-1.6-0.8-2.5
	C603,1152.2,603.5,1151.4,604.3,1150.8"/>
<path fill="#8C8C8C" d="M70,1139.9c-1,0-1.6,0.4-2.5,0.6v7.5c0.6,0,1,0,1.6,0c2.3,0,2.7-1,2.7-2.5v-3.5
	C72.2,1140.8,71.7,1139.9,70,1139.9 M54.2,1139.5c-1.6,0-2.1,0.8-2.1,2.1v0.6h4v-0.6C56.2,1140.3,55.8,1139.5,54.2,1139.5
	 M23.7,1147.2c0,0.8,0.4,1.2,1.2,1.2c1,0,1.6-0.4,2.3-0.6v-1.6h-2.1C24.1,1146.2,23.7,1146.4,23.7,1147.2 M85.5,1139.9
	c-1.6,0-2.3,0.8-2.3,2.1v4.2c0,1,0.6,2.1,2.3,2.1c1.7,0,2.3-0.8,2.3-2.1v-4.2C87.6,1140.8,87.1,1139.9,85.5,1139.9 M15.6,1151.8
	h-4.8v-11.7H8.3v-4h2.5v-2.5c0-3.4,1.4-5.2,5.2-5.2h3.4v4h-2.1c-1.4,0-1.6,0.6-1.6,1.6v2.1h3.8l-0.4,4h-3.4
	C15.6,1140.1,15.6,1151.8,15.6,1151.8z M32.3,1151.8h-4l-0.2-1c-1.8,1-3.6,1.2-4.6,1.2c-2.9,0-4.6-1.8-4.6-4.8
	c0-3.1,1.8-4.4,5.2-4.4h3.4v-0.6c0-1.6-0.2-2.1-2.7-2.1h-4.2l0.4-4h4.6c5.6,0,6.9,1.6,6.9,6.3C32.3,1142.2,32.3,1151.8,32.3,1151.8
	 M46.1,1140.3c-2.5-0.4-3.4-0.6-4.4-0.6c-2.1,0-2.9,0.4-2.9,2.3v3.6c0,1.8,0.6,2.3,2.9,2.3c1.2,0,1.8,0,4.4-0.6v4
	c-2.3,0.4-3.6,0.6-4.8,0.6c-5.2,0-7.3-2.7-7.3-6.7v-2.9c0-4,2.1-6.7,7.3-6.7c1.2,0,2.7,0.2,4.8,0.6V1140.3 M61.1,1145.4h-8.9v0.4
	c0,1.8,0.6,2.3,2.9,2.3c1.8,0,3.1,0,5.6-0.6v4c-2.5,0.4-3.8,0.6-6.1,0.6c-5.2,0-7.3-2.7-7.3-6.7v-3.4c0-3.6,1.4-6.3,6.9-6.3
	c5.4,0,6.9,2.7,6.9,6.3V1145.4 M76.9,1145.4c0,3.8-1,6.7-7.7,6.7c-2.3,0-3.8-0.2-6.5-0.6v-21.9l4.8-0.8v7.7c1-0.4,2.5-0.6,3.6-0.6
	c4.8,0,5.6,2.1,5.6,5.6v4H76.9 M92.6,1145.6c0,3.4-1.4,6.5-7.1,6.5c-5.7,0-7.1-3.1-7.1-6.5v-3.1c0-3.4,1.4-6.5,7.1-6.5
	c5.7,0,7.1,3.1,7.1,6.5V1145.6 M108,1145.6c0,3.4-1.4,6.5-7.1,6.5c-5.7,0-7.1-3.1-7.1-6.5v-3.1c0-3.4,1.4-6.5,7.1-6.5
	c5.7,0,7.1,3.1,7.1,6.5V1145.6 M124,1151.8h-5.4l-4.4-7.5v7.5h-4.8v-22.3l4.8-0.8v14.4l4.4-7.1h5.2l-4.8,7.7L124,1151.8
	 M100.9,1139.9c-1.6,0-2.3,0.8-2.3,2.1v4.2c0,1,0.6,2.1,2.3,2.1s2.3-0.8,2.3-2.1v-4.2C103.2,1140.8,102.5,1139.9,100.9,1139.9"/>
<path fill="#8C8C8C" d="M189.7,1144.8c-0.6,0.2-1.2,0.4-1.8,0.6v1.4c0.8-0.2,1.8-0.4,2.7-0.6L189.7,1144.8"/>
<path fill="#8C8C8C" d="M199.9,1144.1v-0.4c-0.4-0.6-0.8-1.2-1.2-1.8c-1.2,0.4-2.3,0.6-3.6,1v2.1
	C196.8,1144.8,198.5,1144.3,199.9,1144.1"/>
<path fill="#8C8C8C" d="M199.7,1141.6c0.2,0.4,0.4,0.8,0.6,1.2l0.4-1.4C200.4,1141.4,199.9,1141.6,199.7,1141.6"/>
<path fill="#8C8C8C" d="M244.8,1116.3c-4.4,4.2-8.3,7.7-12.3,10.7c-3.6-5.2-8.7-9.1-15.2-11.1c-15-4.4-30.7,4.2-35,19.2
	c-1.2,4.4-1.4,8.9-0.6,13.3c-1.8,1-3.8,2.1-5.4,3.4c1.6-1,3.6-1.8,5.6-2.7c1,5.2,3.8,10.1,7.3,13.8c-2.9,2.5-5,4.4-5,5.2l6.1-4.2
	c3.1,2.9,6.9,5.2,11.3,6.5c15,4.4,30.7-4.2,35-19.2c2.1-6.7,1.2-13.8-1.4-19.6C240.6,1126.2,244.3,1121.1,244.8,1116.3
	 M213.9,1119.7C213.9,1119.7,213.9,1119.5,213.9,1119.7l0.4-2.3l0.2,2.1c0,0,0.2,0,0.2,0.2l1.4,0.2l-1.6,0.2c0,0.2,0,0.2-0.2,0.2
	l-0.2,2.3l-0.2-2.3l-0.2-0.2h-1.4L213.9,1119.7 M214.5,1126c0,0.2-0.2,0.4-0.4,0.2c-0.2,0-0.2-0.2-0.2-0.4c0-0.2,0.2-0.4,0.4-0.2
	C214.5,1125.6,214.7,1125.8,214.5,1126 M210.7,1123.9c0,0.2-0.2,0.2-0.2,0.2l-0.2-0.2l0.2-0.2L210.7,1123.9 M210.3,1120.3l0.2,0.2
	l-0.2,0.2c0,0-0.2-0.2,0-0.2C210.1,1120.3,210.3,1120.3,210.3,1120.3 M208.9,1116.8c0.2,0,0.2,0.2,0.2,0.4c0,0.2-0.2,0.2-0.4,0.2
	s-0.2-0.2-0.2-0.4C208.5,1116.8,208.7,1116.8,208.9,1116.8 M208.1,1122.2c0.2,0,0.2,0.2,0.2,0.4s-0.2,0.2-0.4,0.2s-0.2-0.2-0.2-0.4
	C207.6,1122.2,207.9,1122.2,208.1,1122.2 M207.2,1119.7c0.2,0,0.2,0.2,0.2,0.4c0,0.2-0.2,0.2-0.4,0.2s-0.2-0.2-0.2-0.4
	C206.8,1119.9,207,1119.7,207.2,1119.7 M205,1123c0.2,0,0.2,0.2,0.2,0.2c0,0.2-0.2,0.2-0.4,0.2s-0.2-0.2-0.2-0.4
	C204.8,1123,205,1123,205,1123 M204.1,1122.6c0.2,0,0.2,0.2,0.2,0.2l-0.2,0.2l-0.2-0.2C203.8,1122.8,204.1,1122.6,204.1,1122.6
	 M203.8,1124.1c0.2,0,0.2,0.2,0.2,0.4c0,0.2-0.2,0.2-0.4,0.2s-0.2-0.2-0.2-0.4C203.6,1124.1,203.6,1124.1,203.8,1124.1
	 M203.4,1122.2l0.2,0.2c0,0.2-0.2,0.2-0.2,0.2c-0.2,0-0.2-0.2-0.2-0.2C203.2,1122.2,203.4,1122.2,203.4,1122.2 M188.5,1155.7
	c-0.2,0-0.2-0.2-0.2-0.2l0.2-0.2c0.2,0,0.2,0.2,0.2,0.2C188.7,1155.7,188.7,1155.7,188.5,1155.7 M191.1,1157.3
	c-0.2,0-0.2-0.2-0.2-0.4c0-0.2,0.2-0.2,0.4-0.2c0.2,0,0.2,0.2,0.2,0.4C191.4,1157.3,191.1,1157.5,191.1,1157.3 M191.4,1155.5
	c-0.2,0-0.2-0.2-0.2-0.4c0-0.2,0.2-0.2,0.4-0.2c0.2,0,0.2,0.2,0.2,0.4C191.8,1155.5,191.6,1155.7,191.4,1155.5 M192.9,1157.9
	c0,0.2-0.4,0.4-0.6,0.2c-0.2,0-0.4-0.4-0.2-0.6c0-0.2,0.4-0.4,0.6-0.4C192.7,1157.5,192.9,1157.7,192.9,1157.9 M195.7,1157.1
	c-0.2,0-0.2-0.2-0.2-0.4c0-0.2,0.2-0.2,0.4-0.2c0.2,0,0.2,0.2,0.2,0.4C196.1,1157.1,195.9,1157.1,195.7,1157.1 M191.6,1147.8
	l-3.8-6.3v5.2l1,1h-3.6l0.2-0.4l0.6-1v-0.6v-7.5l-1-1.2h4.6l3.6,6.1h0.2v-4.8l-1-1.2h3.6l-1,1.2v7.9l1.2,1.4h-4.6V1147.8
	 M199.3,1163.5c0,0.2,0,0.2-0.2,0.2l-0.2,1.2l-0.2-1.2l-0.2-0.2l-1-0.2l1-0.2c0,0,0-0.2,0.2-0.2l0.2-1.2l0.4,1.2c0,0,0.2,0,0.2,0.2
	l1,0.2L199.3,1163.5 M197.6,1160.2c0-0.2,0.2-0.2,0.4-0.2s0.2,0.2,0.2,0.4s-0.2,0.2-0.4,0.2C197.6,1160.4,197.4,1160.4,197.6,1160.2
	 M198.7,1148.9c-0.2,0-0.2-0.2-0.2-0.4c0-0.2,0.2-0.2,0.4-0.2s0.2,0.2,0.2,0.2C198.9,1148.9,198.9,1148.9,198.7,1148.9
	 M199.3,1154.1c0,0.2-0.2,0.2-0.4,0.2s-0.2-0.2-0.2-0.4c0-0.2,0.2-0.2,0.4-0.2C199.1,1153.7,199.3,1153.9,199.3,1154.1
	 M200.4,1157.9c0-0.2,0.4-0.4,0.6-0.2c0.2,0,0.4,0.4,0.2,0.6c0,0.2-0.2,0.4-0.6,0.4C200.4,1158.3,200.4,1158.1,200.4,1157.9
	 M201,1161c-0.2,0-0.2-0.2-0.2-0.2c0-0.2,0.2-0.2,0.2-0.2c0.2,0,0.2,0.2,0.2,0.2C201.4,1160.8,201.2,1161,201,1161 M207.4,1160.6
	c-0.2,0-0.4-0.2-0.2-0.4c0-0.2,0.2-0.4,0.4-0.2c0.2,0,0.4,0.2,0.2,0.4C207.9,1160.4,207.6,1160.6,207.4,1160.6 M212.9,1158.5
	c-0.2,0-0.2-0.2-0.2-0.4c0-0.2,0.2-0.2,0.4-0.2s0.2,0.2,0.2,0.4C213.1,1158.5,212.9,1158.5,212.9,1158.5 M220.2,1142.6
	c0.6,0.6,0.8,1.4,0.8,2.3c0,1.8-2.3,3.1-4.4,3.1c-1.8,0.2-2.5,0-3.6-0.4c-0.4,0.2-0.8,0.6-1.2,0.8v-0.2v-2.1c0-0.4,0-1,0-1.4
	c0.2,0.4,0.4,0.6,0.8,1c0,0,0.6,0.4,1.8,0.6c1.2,0.2,2.5,0.2,2.7-0.6c0.2-0.6,0-0.8-0.4-1c0,0-1.4-0.6-1.6-0.6c0,0-0.2,0-0.2-0.2
	c-1.2-0.4-3.4-1.6-3.4-3.4c0-1.6,1.6-3.4,4-3.6c0.4,0,0.6,0,1,0c-3.8-4.8-8.3-8.7-12.1-10.7c-6.3-2.9-9.8-0.8-8.5,5.6
	c0.6,3.4,2.7,7.3,4.6,10.7l1.2-4.2c0,0-1.2-1.4-1.2-1.2h5.6l3.1,9.1l1,1l0.4,0.4h-6.9l1-1.2l-0.4-1.2h-2.5c1.2,1.8,2.3,3.4,2.9,3.8
	c0.4,0.4,0.8,0.8,1.2,1l1.4,1.2c0.8,0.6,1.4,1.2,1.8,1.4c1.2,0.8,0.6,1.6,0.4,1.8c-0.4,0.2-1.4,0-1.8-0.8c-0.2-0.2-0.8-1-1.4-1.8
	l-1.2-1.4c-0.6-0.6-2.3-2.9-4.2-5.4l-0.4,1.2l1,1.2h-3.9l1.4-1.2l0.8-2.9c-0.8-1.2-1.6-2.5-2.1-3.6c-1.8-3.6-5.4-12.7-1.2-15.2
	c4.2-2.3,10.3,1.2,16.4,7.3c1.4,1.4,3.1,3.1,4.4,5c0.6,0.2,0.8,0.4,1.2,0.4c0.4-0.2,0.8-0.6,1-0.8c0,0.6,0,1.2,0,1.8
	c0,0.4,0,1,0,1.4c-0.4-0.4-0.6-0.6-1-0.8c0.4,0.6,0.8,1,1.2,1.6l0.6,1c0.8,1.4,1.6,2.9,2.3,4.6l2.3-8.1l-0.8-0.8
	c-0.2-0.2-0.4-0.4-0.4-0.4h1h2.3h2.3l3.1,9.1l1.4,1.4h-6.7l1-1.2l-0.4-1.4h-3.4l-0.4,1.4l1,1.2h-2.1c1,2.7,1.4,5.4,1.2,7.7
	c-0.6,5.4-7.1,4-9.3,2.3c4.8,1.6,6.7,1.4,7.9,0c1.4-1.8,0.8-3.6,0.4-6.9c0-0.8-0.4-1.8-0.8-2.9h-1.4l1-0.8
	C222,1145.8,221.2,1144.1,220.2,1142.6c-0.2-0.4-0.4-0.8-0.6-1l-1.4-2.1l-0.2-0.4c-0.4,0-0.8-0.2-1-0.2c-0.4,0-0.6,0-0.8,0.2
	c-0.4,0.2-0.8,0.4-0.8,0.6s0,0.2,0.2,0.4l0.2,0.2c0.6,0.4,1.6,0.6,2.7,1c0.2,0.2,0.6,0.2,0.8,0.4
	C218.9,1141.8,220,1142.2,220.2,1142.6 M221.2,1153.7c-0.2,0-0.2-0.2-0.2-0.4c0-0.2,0.2-0.2,0.4-0.2s0.2,0.2,0.2,0.4
	C221.4,1153.7,221.2,1153.7,221.2,1153.7 M221.6,1156.9c0,0.2-0.2,0.2-0.4,0.2s-0.2-0.2-0.2-0.4c0-0.2,0.2-0.2,0.4-0.2
	C221.4,1156.4,221.6,1156.7,221.6,1156.9 M222.8,1163c0,0.2-0.4,0.4-0.6,0.2c-0.2,0-0.4-0.4-0.2-0.6c0-0.2,0.4-0.4,0.6-0.2
	C222.6,1162.4,222.8,1162.8,222.8,1163 M226.8,1150.2c0-0.2,0.2-0.2,0.2-0.2c0.2,0,0.2,0.2,0.2,0.2l-0.2,0.2
	C226.8,1150.4,226.6,1150.4,226.8,1150.2 M227.5,1155.9c0.2,0,0.2,0.2,0.2,0.4c0,0.2-0.2,0.2-0.4,0.2s-0.2-0.2-0.2-0.4
	C227.1,1155.9,227.3,1155.9,227.5,1155.9 M227.3,1151.6c0-0.2,0.2-0.2,0.4-0.2s0.2,0.2,0.2,0.4c0,0.2-0.2,0.2-0.4,0.2
	C227.3,1151.8,227.3,1151.8,227.3,1151.6 M228.5,1157.9l-0.2,0.2l-0.2,0.8l-0.2-0.8l-0.2-0.2h-0.8l0.8-0.2c0,0,0-0.2,0.2-0.2
	l0.2-0.8l0.2,0.8c0,0,0,0,0.2,0.2l0.8,0.2H228.5 M229.5,1158.1c-0.2,0-0.2-0.2-0.2-0.4c0-0.2,0.2-0.2,0.4-0.2s0.2,0.2,0.2,0.4
	C229.9,1158.1,229.7,1158.1,229.5,1158.1 M229.9,1154.1c-0.2,0-0.2-0.2-0.2-0.4c0-0.2,0.2-0.2,0.4-0.2s0.2,0.2,0.2,0.4
	C230.3,1154.1,230.1,1154.3,229.9,1154.1 M231.5,1153.7c-0.2,0-0.4-0.2-0.2-0.4c0-0.2,0.2-0.4,0.4-0.2c0.2,0,0.2,0.2,0.2,0.4
	C231.9,1153.5,231.7,1153.7,231.5,1153.7 M230.9,1151.4c0,0,0,0.2-0.2,0.2l-0.2,1.4l-0.2-1.4l-0.2-0.2l-1.2-0.2l1.2-0.2
	c0,0,0-0.2,0.2-0.2l0.2-1.4l0.2,1.4c0,0,0.2,0,0.2,0.2l1,0.2L230.9,1151.4 M223.2,1152.2c-0.2,0-0.4-0.4-0.4-0.6
	c0-0.2,0.4-0.4,0.6-0.4c0.2,0,0.4,0.4,0.4,0.6S223.5,1152.5,223.2,1152.2 M223.7,1154.1c0,0.2-0.2,0.4-0.4,0.2
	c-0.2,0-0.2-0.2-0.2-0.4c0-0.2,0.2-0.4,0.4-0.2C223.7,1153.7,223.7,1153.9,223.7,1154.1 M202.8,1128l-1,0.2c0,0,0,0.2-0.2,0.2
	l-0.2,1.8l-0.2-1.8l-0.2-0.2h-1l1-0.2c0,0,0-0.2,0.2-0.2l0.2-1.4l0.2,1.4c0,0,0.2,0,0.2,0.2H202.8 M199.9,1129.3
	c0,0.2-0.2,0.2-0.4,0.2s-0.2-0.2-0.2-0.4c0-0.2,0.2-0.2,0.4-0.2C199.7,1129.1,199.9,1129.3,199.9,1129.3 M198.9,1128l-0.2,0.2
	l-0.2-0.2l0.2-0.2C198.9,1127.8,198.9,1127.8,198.9,1128"/>
<path fill="#8C8C8C" d="M202.8,1140.8c0,0-0.2,0-0.4,0c-0.2,0.8-0.6,2.3-0.8,2.9c0.6-0.2,1.4-0.4,2.1-0.4L202.8,1140.8"/>
<path fill="#8C8C8C" d="M201.6,1143.9h2.3l-1.2-3.8L201.6,1143.9"/>
<path fill="#8C8C8C" d="M225.4,1143.9h2.3l-1.2-3.8C226.4,1140.3,225.6,1143.9,225.4,1143.9"/>
<g>
	<path fill-rule="evenodd" clip-rule="evenodd" fill="#8C8C8C" d="M315.5,1131.7c-0.4-0.3-0.9-0.7-1.4-0.8l-0.8,16.4l4-11.3
		C317.8,1134.2,316.8,1132.8,315.5,1131.7L315.5,1131.7z M311.2,1129.7c2.9,0.1,4-2,4.1-4c0.1-3.1-1.8-4.3-4.1-4.3
		c-2.3,0-4.1,1.3-4,4.3C307.2,1127.3,307.9,1129.6,311.2,1129.7L311.2,1129.7z M302.6,1128.7c0.2-5-7.5-4.8-7.3,0
		C295,1133.7,303.1,1133.8,302.6,1128.7L302.6,1128.7z M326.4,1131.3c0.1-4.9-7.3-5-7.1,0C319.2,1135.9,326.6,1136.1,326.4,1131.3
		L326.4,1131.3L326.4,1131.3z M326.4,1131.3L326.4,1131.3L326.4,1131.3L326.4,1131.3z M329.2,1155.7v-3.3c-2.7,1.2-5.1,2.2-7.7,3.3
		H329.2L329.2,1155.7z M292.4,1155.7h8.4l-8.4-3.6V1155.7L292.4,1155.7z M329.2,1151.7v-3.4c-2.6,1.7-5.4,3.5-7.9,5.2L329.2,1151.7
		L329.2,1151.7z M292.4,1151.4c2.9,0.6,6,1.4,8.6,2l-8.6-5.6V1151.4L292.4,1151.4z M329.2,1147.4v-4.5l-8.9,8.7
		C323.4,1150.3,326.1,1148.9,329.2,1147.4L329.2,1147.4z M292.5,1147.1l9.4,4.3c-3.1-3.1-6.3-6.1-9.4-9.2V1147.1L292.5,1147.1z
		 M328.7,1139.1c-0.2-0.4-0.5-0.8-0.8-1.2l-8.9,12.1c3.6-2.6,7-5.3,10.3-8C329.3,1141,329.1,1139.9,328.7,1139.1L328.7,1139.1z
		 M292.4,1141.5c3.6,2.8,7.3,5.6,10.9,8.4l-9.8-13.8C292.6,1137.6,292.3,1139.5,292.4,1141.5L292.4,1141.5z M322.9,1135.6l-5.9,13.1
		l10.3-11.2C326.2,1136.3,324.7,1135.7,322.9,1135.6L322.9,1135.6z M317.1,1139.1l-1.8,8.9c2.4-4.1,4.7-8.2,7-12.3
		C320.1,1135.8,317.8,1136.7,317.1,1139.1L317.1,1139.1z M293.9,1135.6l11.1,12.9l-6.8-15.2C296.3,1133.4,294.8,1134.3,293.9,1135.6
		L293.9,1135.6z M298.7,1133.3c2.7,4.7,5.5,9.9,8.2,14.4c-0.9-4-1.9-10.6-3.3-12.5C301.9,1133,298.7,1133.3,298.7,1133.3
		L298.7,1133.3z M306.9,1131.7c-1.3,1-2.2,2.5-1.9,4.2l4,11.3l-0.8-16.3C307.8,1131,307.2,1131.4,306.9,1131.7L306.9,1131.7z
		 M308.9,1130.7l2.4,16.3l2.4-16.3C312.2,1130.3,310.4,1130.2,308.9,1130.7L308.9,1130.7z"/>
	<path fill-rule="evenodd" clip-rule="evenodd" fill="#8C8C8C" d="M354.5,1155.8h2.2v-13h-2.2V1155.8L354.5,1155.8z M366.7,1152.1
		c0-1.9-1.2-3-3.4-3.9c-1.8-0.6-2.6-1.1-2.6-2.1c0-0.8,0.8-1.7,2.4-1.7c1.1,0,2.2,0.4,2.7,0.7v-1.9c-0.5-0.3-1.7-0.6-2.7-0.6
		c-2.8,0-4.7,1.6-4.7,3.6c0,1.9,1.5,3,3.6,3.8c1.7,0.6,2.4,1.2,2.4,2.2c0,1.1-1,1.8-2.5,1.8c-1.2,0-2.7-0.4-3.5-1v2
		c0.7,0.4,2,0.8,3.4,0.8C365.2,1156,366.7,1154.1,366.7,1152.1L366.7,1152.1z M379.5,1150.3h1.2c1,1.6,3.2,5.5,3.2,5.5h2.6l-3.5-5.6
		c0.8-0.2,1.4-0.5,1.8-0.9c0.7-0.6,1.3-1.6,1.3-2.7c0-1.3-0.5-2.1-1.3-2.7c-0.8-0.7-1.9-1-3.7-1h-3.8v5.5l0,0v5.6h-6.9v-3.7h4v-1.8
		h-4v-3.7c0.6,0,5,0,5,0v-1.8c-1.4,0-7.1,0-7.1,0v13h11.3V1150.3L379.5,1150.3z M379.5,1148.3v-3.6h1.9c1.7,0,2.3,0.7,2.3,1.9
		c0,1.3-0.7,1.8-2.3,1.8L379.5,1148.3L379.5,1148.3L379.5,1148.3z M350.3,1152.1l1.3,3.7h2.3l-4.5-13h-2.8l-3.8,11l-3.7-4.7l5-6.3
		h-2.6l-4.6,6.1v-6.1h-2.2v13h2.2v-6.3l4.8,6.3h0.5l0,0h2.1l1.3-3.7H350.3L350.3,1152.1z M347.8,1144.9L347.8,1144.9l1.9,5.4h-3.6
		L347.8,1144.9L347.8,1144.9z"/>
	<path fill-rule="evenodd" clip-rule="evenodd" fill="#8C8C8C" d="M430.7,1152.2l-2.2-9.4h-4v13c1.2,0,2.2,0,2.2,0v-11.1l2.8,11.1
		c0,0,1,0,2.3,0l2.8-11.1v11.1h2.1v-13h-3.8L430.7,1152.2L430.7,1152.2z M402,1143.7c-0.8-0.7-1.9-1-3.7-1h-3.8v13h2.2v-5.4h1.6
		c1.9,0,2.9-0.3,3.7-1c0.7-0.7,1.3-1.7,1.3-2.9C403.3,1145.3,402.8,1144.4,402,1143.7L402,1143.7z M398.6,1148.5h-1.9v-3.8h1.9
		c1.8,0,2.4,0.8,2.4,1.8C401,1147.7,400.2,1148.5,398.6,1148.5L398.6,1148.5z M421.3,1149.2c0.7-0.7,1.3-1.6,1.3-2.8
		c0-1.2-0.6-2.1-1.3-2.7c-0.8-0.7-1.9-1-3.8-1h-3.7v5.6l0,0v5.6h-6.9v-3.6h4v-1.9h-4v-3.6c0.5,0,4.9,0,4.9,0v-1.9
		c-1.3,0-7.1,0-7.1,0v13H416v-5.6h1.1c1.1,1.7,3.3,5.6,3.3,5.6h2.6l-3.5-5.7C420.3,1149.9,420.8,1149.6,421.3,1149.2L421.3,1149.2z
		 M416,1148.4v-3.7h1.9c1.8,0,2.4,0.7,2.4,1.8c0,1.3-0.7,1.9-2.4,1.9H416L416,1148.4z M481.1,1142.7L481.1,1142.7h-0.4v10.1
		l-5.2-10.1h-3v11.1h-6.8v-3.6h4v-1.9h-4v-3.6c0.5,0,4.9,0,4.9,0v-1.9c-1.3,0-7.1,0-7.1,0v13h11l0,0c0.1,0,0.2,0,0.2,0v-9.9l5.2,9.9
		h3v-11.1c1.4,0,2.8,0,4,0v11.1h2.2v-11.1h3.9l-0.1-1.9H481.1L481.1,1142.7z M501.6,1153.8h-5.4v-3.6h3.9v-1.9h-3.9v-3.6
		c0.5,0,4.9,0,4.9,0v-1.9c-1.4,0-7.1,0-7.1,0v13h7.6V1153.8L501.6,1153.8z M459,1152.7l-5.2-10h-3v13c1.1,0,2.1,0,2.1,0v-9.8
		l5.2,9.8h3v-13H459V1152.7L459,1152.7z M442.5,1142.7l-4.5,13h2.2l1.2-3.8h4.8l1.3,3.8h2.3l-4.5-13H442.5L442.5,1142.7z
		 M442,1150.2l1.8-5.5l0,0l1.8,5.5H442L442,1150.2z"/>
</g>
</svg>
